HIERARCHY
ROOT Hips
{
   OFFSET 0.00000 0.00000 0.00000
   CHANNELS 6 Xposition Yposition Zposition Zrotation Xrotation Yrotation
   JOINT RightUpLeg
   {
      OFFSET -8.945800 -8.667070 0.101652
      CHANNELS 3 Zrotation Xrotation Yrotation
      JOINT RightLeg
      {
         OFFSET 0.000000 -44.422697 1.372700
         CHANNELS 3 Zrotation Xrotation Yrotation
         JOINT RightFoot
         {
            OFFSET 0.253549 -42.092399 -1.460590
            CHANNELS 3 Zrotation Xrotation Yrotation
            JOINT RightToes
            {
               OFFSET 0.040000 -4.415090 8.499099
               CHANNELS 3 Zrotation Xrotation Yrotation
               End Site
               {
                  OFFSET -0.080000 -0.137448 9.779790
               }
            }
         }
      }
   }
   JOINT Spine
   {
      OFFSET 0.000000 11.890501 0.000000
      CHANNELS 3 Zrotation Xrotation Yrotation
      JOINT Spine1
      {
         OFFSET 0.000000 25.657401 0.127663
         CHANNELS 3 Zrotation Xrotation Yrotation
         JOINT HEad
         {
            OFFSET 0.000000 8.734161 0.011341
            CHANNELS 3 Zrotation Xrotation Yrotation
            End Site
            {
               OFFSET -0.290000 12.774200 2.513950
            }
         }
         JOINT LeftShoulder1
         {
            OFFSET 8.990000 -0.362252 -0.220000
            CHANNELS 3 Zrotation Xrotation Yrotation
            JOINT LeftArm
            {
               OFFSET 10.282700 -0.003380 0.322123
               CHANNELS 3 Zrotation Xrotation Yrotation
               JOINT LeftForeArm
               {
                  OFFSET 32.766900 0.099144 -1.424340
                  CHANNELS 3 Zrotation Xrotation Yrotation
                  JOINT LeftHand
                  {
                     OFFSET 27.564301 0.085362 1.022160
                     CHANNELS 3 Zrotation Xrotation Yrotation
                     End Site
                     {
                        OFFSET 16.744301 -0.600000 1.502910
                     }
                  }
               }
            }
         }
         JOINT RightShoulder
         {
            OFFSET -8.990000 -0.362252 -0.220000
            CHANNELS 3 Zrotation Xrotation Yrotation
            JOINT RightArm
            {
               OFFSET -10.282700 -0.003380 0.322123
               CHANNELS 3 Zrotation Xrotation Yrotation
               JOINT RightForeArm
               {
                  OFFSET -32.897098 0.099144 -1.424340
                  CHANNELS 3 Zrotation Xrotation Yrotation
                  JOINT RightHand
                  {
                     OFFSET -27.492101 0.085362 1.022160
                     CHANNELS 3 Zrotation Xrotation Yrotation
                     End Site
                     {
                        OFFSET -16.631201 -0.600000 1.502910
                     }
                  }
               }
            }
         }
      }
   }
   JOINT LeftUpLeg
   {
      OFFSET 8.945800 -8.667070 0.101652
      CHANNELS 3 Zrotation Xrotation Yrotation
      JOINT LeftLeg
      {
         OFFSET 0.000000 -44.422697 1.372700
         CHANNELS 3 Zrotation Xrotation Yrotation
         JOINT LeftFoot
         {
            OFFSET -0.253549 -42.092399 -1.460590
            CHANNELS 3 Zrotation Xrotation Yrotation
            JOINT LeftToes
            {
               OFFSET -0.040000 -4.415090 8.499099
               CHANNELS 3 Zrotation Xrotation Yrotation
               End Site
               {
                  OFFSET 0.080000 -0.047448 9.779790
               }
            }
         }
      }
   }
}
MOTION
Frames: 15
Frame Time: 0.016667
0.00000 96.00000 0.00000 0.00000 0.00000 0.00000 0.00000 0.00000 0.00000 0.00000 0.00000 0.00000 0.00000 0.00000 0.00000 0.00000 0.00000 0.00000 0.00000 0.00000 0.00000 0.00000 0.00000 0.00000 0.00000 0.00000 0.00000 0.00000 0.00000 0.00000 0.00000 0.00000 0.00000 0.00000 0.00000 0.00000 0.00000 0.00000 0.00000 0.00000 0.00000 0.00000 0.00000 0.00000 0.00000 0.00000 0.00000 0.00000 0.00000 0.00000 0.00000 0.00000 0.00000 0.00000 0.00000 0.00000 0.00000 0.00000 0.00000 0.00000 0.00000 0.00000 0.00000 
-219.109246 99.077223 397.674936 28.092700 27.010082 86.645253 -19.297231 12.578196 -0.784782 11.123056 12.966130 6.926973 -43.277161 16.125161 29.539977 3.014470 11.179311 -50.167063 -41.078127 13.460078 7.448051 -8.263596 21.301391 -0.084518 -41.381350 0.913001 -9.939442 -4.886550 -28.718719 -8.216943 -49.546684 -61.694442 -73.280109 -18.942731 36.699532 -27.052996 16.011560 -19.721241 -18.322823 -37.429583 67.413400 110.505405 97.084623 144.594176 205.907814 -25.206214 253.296937 48.777147 -7.097335 -23.126046 46.483874 13.641897 1.606369 -57.686883 -37.763460 -17.478852 153.820409 -24.227922 19.704474 19.754495 20.878527 -30.855455 -32.282811
-217.364308 98.127764 397.870249 31.257852 28.568461 84.470288 -21.241268 13.127099 4.427626 11.233878 17.281074 1.959694 -43.551882 12.612138 29.520542 2.529470 10.140223 -50.498290 -42.383315 12.518093 12.280174 -7.127416 25.247507 -0.273175 -41.134186 1.490182 -11.756017 -4.868636 -24.241892 -11.154589 -35.939704 -59.827143 -57.163475 -9.377032 30.422936 -29.586525 14.656357 -25.506095 -39.970831 -37.198214 66.807105 109.860833 95.442748 142.266311 204.328087 -21.725150 253.747402 50.741533 -13.208718 -21.346940 43.901055 10.453884 2.828868 -46.361490 -36.865106 -7.580767 141.710156 -34.423945 22.200239 20.829939 21.116990 -30.353231 -32.334884
-215.618664 97.523697 397.791742 36.622378 29.699732 80.909069 -23.127893 16.060251 10.749169 10.826695 21.796732 -4.070222 -44.030893 10.371988 29.927283 2.215234 9.147951 -51.022712 -42.167976 10.886077 17.471404 -6.083668 28.423979 -0.225422 -40.272219 1.529722 -13.114230 -5.567252 -22.083523 -12.361265 -19.854088 -57.689451 -41.608457 -2.498933 21.301500 -33.156996 10.572642 -24.114183 -22.894121 -37.272721 66.972511 110.726020 94.988254 138.176216 203.928398 -19.266563 252.796366 53.940125 -7.627395 -15.483035 41.258693 10.695171 4.553570 -30.555046 -36.050100 3.988944 126.489503 -48.008737 24.176573 23.102466 22.010238 -27.988877 -31.302026
-214.042203 97.525719 397.452463 40.827527 28.486834 77.004325 -22.706071 17.971035 17.048133 11.586909 25.198151 -9.932631 -43.761599 8.616038 29.946135 2.275196 8.300731 -52.486479 -42.076257 10.701052 23.301738 -5.024278 31.302118 1.483722 -41.058627 -0.443183 -13.028823 -4.325023 -18.024999 -13.683705 -4.691592 -51.366759 -27.821642 -0.934784 12.393392 -31.892841 4.529222 -28.614434 -47.702987 -41.200415 68.070751 110.710126 94.683415 133.490597 202.409186 -18.593445 252.151842 52.464165 -8.397965 -12.300404 36.706799 14.894937 3.106409 -11.945512 -32.872249 12.412146 106.973487 -37.341723 27.618027 23.714746 23.704062 -23.312293 -29.361627
-212.656781 97.737397 397.080072 43.890181 27.524426 74.186639 -22.989179 19.518054 22.308192 12.860443 27.981475 -15.531203 -41.085487 6.364643 30.235154 2.093019 6.707402 -54.398454 -41.276049 11.342897 25.223351 -4.746216 31.596281 1.224136 -40.606065 -5.450005 -12.303027 -5.739062 -14.058054 -18.418514 3.794241 -43.635155 -14.183489 0.513697 -0.593920 -29.163856 3.523395 -25.058627 -27.840358 -45.011274 65.874115 113.993658 94.776600 128.658060 202.382685 -16.886200 249.517875 55.176795 -5.138787 -9.825926 38.030025 19.247587 1.546839 4.835666 -26.143650 18.682806 86.854639 -37.290422 27.721289 23.964683 26.176446 -16.509851 -26.752353
-211.209351 97.789687 396.709589 45.394199 29.396226 71.880446 -25.271886 19.219543 27.238480 13.625490 30.205712 -20.220183 -38.300071 3.853857 31.016032 1.622732 4.558668 -56.402753 -37.509934 13.770481 25.451961 -5.820653 33.954376 0.274201 -42.443304 -11.064766 -10.390277 -8.950161 -12.493815 -24.814019 7.446682 -38.247642 -2.835787 0.063464 -12.747910 -28.093225 -2.457270 -28.512389 -45.833233 -49.354500 63.202288 117.376487 94.614574 122.593686 202.304944 -11.971948 247.461579 67.513599 -8.132019 -11.429717 47.475006 24.117999 -0.598615 17.868096 -20.923033 19.842719 69.846293 -37.405961 34.397365 24.207502 29.808202 -7.628274 -25.160832
-209.449116 97.629269 396.116098 46.004749 33.475915 67.136497 -30.152519 17.223073 32.365087 10.922786 29.584910 -24.486819 -37.395105 3.024388 33.124109 1.550364 3.130048 -57.674138 -37.571532 17.052278 25.802380 -6.444546 35.622773 0.889066 -44.673132 -16.862561 -9.198273 -11.520084 -13.198728 -28.031544 7.101869 -35.943881 4.575474 -0.365873 -20.639469 -27.827377 -3.912243 -23.246812 -32.744593 -46.329863 57.452874 118.541526 99.576467 110.362183 200.756349 -12.101929 243.924251 70.502381 -9.214112 -11.776266 49.288452 34.830785 -7.436554 27.843886 -22.938101 22.659484 56.914996 -35.328378 47.637725 24.616236 33.694327 1.274538 -24.510224
-207.307011 96.906785 394.780954 51.356046 32.405238 63.131111 -33.888711 20.846719 35.681943 11.455245 30.745724 -26.864654 -36.046945 0.262779 33.957481 1.237733 0.865337 -59.797418 -35.591153 21.149385 23.026892 -5.606543 37.168257 1.799148 -47.278843 -19.610878 -8.035684 -11.899956 -15.453016 -29.312863 4.807371 -35.516099 10.189966 -1.419669 -24.526238 -26.535903 3.953826 -19.430287 -52.543204 -44.919678 52.418386 119.233861 102.477945 102.925562 197.062419 -11.484756 241.525844 72.774327 -26.175841 -12.977735 61.531398 37.289172 -1.464701 30.080215 -14.000477 14.139763 49.674248 -31.224746 55.487320 28.277342 35.986528 7.111301 -23.878582
-204.432084 95.495175 392.936510 56.548909 33.491235 62.608581 -41.887662 27.385483 36.783724 13.189267 28.529284 -27.339716 -35.616889 -2.382126 34.606581 0.630961 -1.540961 -61.079226 -28.515599 20.487308 17.468012 -6.841496 38.367061 1.187323 -51.403751 -17.832384 -6.757389 -12.030384 -19.485958 -30.693671 2.299777 -41.339969 14.952582 -1.213024 -26.309090 -28.753225 -11.912362 -13.878077 -36.881010 -50.907736 51.449100 123.727497 101.128819 106.416198 193.797848 -7.904919 239.308300 78.196507 -17.168379 -19.311776 45.490020 39.462712 -0.907440 31.814318 -1.297510 6.112104 48.542271 -29.857120 53.636089 31.729992 34.347577 3.193166 -19.888399
-201.390359 94.087094 391.026262 61.461546 34.196384 62.725589 -49.219692 33.445394 39.576971 14.321132 29.122656 -24.772719 -34.706602 -5.992024 35.549543 0.317615 -3.507173 -61.636652 -19.000468 22.605068 9.292227 -8.163342 40.021794 -0.465529 -53.387784 -15.240271 -6.053706 -11.191092 -23.337826 -30.480044 1.050859 -50.430282 20.210257 -1.690358 -23.481903 -30.877349 -11.021974 -17.206298 -43.946940 -59.406513 52.641429 125.831059 100.668109 108.595111 191.391067 -5.589014 239.907280 80.572914 -21.659105 -23.769577 50.120697 37.476883 -1.767522 29.115543 7.158516 -1.797026 46.094648 -33.982332 50.634842 30.264770 32.652105 -1.751219 -19.707780
-198.193890 92.385787 389.436182 67.276496 34.518178 60.554552 -58.427836 36.830658 44.519480 15.861595 30.846190 -21.543673 -33.156265 -9.832169 36.917924 -0.048771 -4.897915 -61.807563 -11.055313 23.371973 2.567350 -9.366398 40.141944 -0.318490 -51.997028 -13.579579 -6.364661 -12.102571 -26.535008 -28.481045 -0.423393 -57.337922 26.390429 -3.084436 -22.221303 -30.383861 -20.779066 -15.500368 -33.530748 -66.467077 53.977438 127.064208 100.048918 111.632660 189.194232 -4.891206 240.152047 83.075864 -18.863656 -28.408761 43.426066 38.094933 -3.653102 25.853197 7.345108 -4.435539 45.116910 -30.421625 49.237031 31.743185 31.744779 -6.200959 -18.802809
-194.942548 90.373086 388.000711 70.558395 32.487122 55.997258 -65.205364 37.204269 47.154154 16.395311 32.050208 -20.069681 -32.252676 -13.091666 36.706393 -0.043165 -6.133244 -62.436153 -4.782014 22.783418 -1.967904 -10.387639 41.090370 1.237032 -50.167364 -11.924836 -6.608634 -13.073762 -25.496867 -27.096175 -2.291677 -56.664332 30.460680 -6.292305 -16.722369 -32.508292 -23.262767 -15.344073 -39.531400 -72.197251 53.937095 127.893311 100.896026 114.629590 187.872344 -4.650181 240.122185 82.798237 -22.083342 -29.949475 44.165362 42.078012 -2.198285 11.255700 3.787920 -3.398188 43.802157 -34.684223 41.963555 27.541836 30.637411 -12.285570 -22.094958
-191.971948 88.469914 386.455301 74.055049 31.926551 53.974235 -70.830742 38.333573 49.490519 16.220186 34.635664 -19.320240 -32.195306 -14.162820 36.614042 0.263058 -6.567467 -62.606764 -0.438025 20.495074 -4.266229 -10.893580 37.307463 4.125386 -45.254375 -10.755362 -7.329398 -18.393769 -25.588356 -27.775989 -5.512477 -55.063032 27.947802 -10.963194 -14.048003 -33.828076 -32.599096 -13.726020 -35.490428 -76.886497 51.708080 129.213751 103.423824 115.676630 186.879686 -6.556300 240.092569 76.553436 -20.055326 -30.895305 38.073623 47.167504 -8.155491 0.143897 -6.113731 8.330181 49.128741 -22.086289 37.807754 25.245873 31.596961 -12.459096 -23.162141
-192.508103 89.356240 386.512712 74.176483 29.648851 52.764881 -68.968948 38.091217 48.209808 14.111475 34.392038 -16.780924 -35.136344 -11.217618 36.367704 0.691769 -6.281072 -61.427470 1.920049 21.322773 -5.108893 -12.626388 37.206226 5.998868 -39.892468 -10.901942 -8.504383 -23.291833 -26.622508 -25.922272 -6.298166 -53.818315 23.893434 -14.515031 -15.479637 -35.260428 -33.596925 -15.004969 -40.817415 -79.730738 52.709502 128.308642 106.043673 110.835611 188.009536 -7.161852 236.299082 78.251845 -21.225325 -29.694527 39.251294 51.133105 -6.637305 -5.321416 -9.073117 8.946711 61.386551 -23.742815 39.812845 22.544716 34.466880 -8.911473 -26.051890
